<!DOCTYPE svg PUBLIC "-//W3C//DTD SVG 1.1//EN" "http://www.w3.org/Graphics/SVG/1.1/DTD/svg11.dtd">
<!-- Uploaded to: SVG Repo, www.svgrepo.com, Transformed by: SVG Repo Mixer Tools -->
<svg fill="#ff0000" height="800px" width="800px" version="1.1" id="Layer_1" xmlns="http://www.w3.org/2000/svg" xmlns:xlink="http://www.w3.org/1999/xlink" viewBox="0 0 512 512" xml:space="preserve" stroke="#ff0000">
<g id="SVGRepo_bgCarrier" stroke-width="0"/>
<g id="SVGRepo_tracerCarrier" stroke-linecap="round" stroke-linejoin="round"/>
<g id="SVGRepo_iconCarrier"> <g> <g> <path d="M256,0C161.899,0,85.333,76.565,85.333,170.667c0,104,146.731,322.667,152.981,331.925 c3.947,5.867,10.56,9.387,17.621,9.408H256c7.04,0,13.653-3.477,17.621-9.301c6.251-9.152,153.045-225.344,153.045-332.032 C426.667,76.565,350.101,0,256,0z M320,192H192c-11.797,0-21.333-9.557-21.333-21.333s9.536-21.333,21.333-21.333h128 c11.797,0,21.333,9.557,21.333,21.333S331.797,192,320,192z"/> </g> </g> </g>
</svg>